<svg xmlns="http://www.w3.org/2000/svg" viewBox="0 0 600 350"><path fill="#243d39" d="M184.968,20.15L176.372,25.13L172.542,31.237L171.776,41.608L165.732,44.102L159.434,26.255L168.967,16.014L176.116,12ZM169.052,51.464L178.84,48.285L185.649,48.728L193.99,45.872L263.784,46.193L269.572,63.906L276.381,78.176L281.828,85.883L290.85,98.364L306.511,96.464L314.257,93.111L327.364,96.464L330.939,90.486L336.812,76.603L351.452,75.675L352.728,71.522L364.814,71.442L362.772,80.032L391.455,79.83L391.881,94.848L396.647,104.064L393.157,118.472L394.945,133.188L402.86,142.079L401.584,170.69L407.372,168.488L417.67,169.099L432.31,165.472L443.119,166.898L445.588,174.401L442.864,186.08L447.035,197.41L443.545,206.505L445.588,214.834L396.307,214.546L395.2,292.26L411.202,312.417L426.607,327.875L383.199,338L325.917,334.51L309.575,322.591L213.737,323.681L210.162,325.4L196.033,314.216L180.712,313.505L166.584,317.69L155.178,322.423L152.965,306.858L156.2,285.227L164.371,262.778L165.647,252.272L173.308,230.331L178.925,220.337L192.458,204.497L200.119,193.727L202.587,175.829L201.31,162.172L194.246,153.584L187.947,139.033L182.159,124.631L183.436,119.688L190.671,110.173L183.521,87.134L178.67,71.16L166.839,56.093Z"/></svg>
