<svg xmlns="http://www.w3.org/2000/svg" viewBox="0 0 600 350"><path fill="#243d39" d="M427.758,326.051L395.835,312.383L379.484,338L349.766,323.407L361.446,306.644L363.003,275.04L333.935,242.352L331.599,205.17L304.217,174.406L276.966,171.836L269.699,184.997L248.547,186.087L237.776,179.414L199.753,202.036L198.975,168.043L207.799,127.858L183.402,126.11L181.326,103.089L165.754,91.252L173.41,77.043L204.165,51.929L207.41,61.032L226.616,62.079L221.165,17.675L239.852,12L260.875,42.679L277.096,77.826L321.477,78.152L335.492,111.659L312.393,121.707L302.011,135.424L345.225,158.197L375.201,203.059L397.911,236.243L425.162,262.363L434.246,288.835Z"/></svg>
