<svg xmlns="http://www.w3.org/2000/svg" viewBox="0 0 600 350"><path fill="#243d39" d="M466.572,282.408L466.572,328.345L441.837,328.422L441.605,338L355.962,294.107L270.319,249.593L248.676,262.357L233.449,271.022L221.391,258.253L187.458,248.167L178.028,233.473L161.1,222.505L151.052,226.857L143.399,213.661L142.549,203.504L129.873,186.117L138.375,176.104L136.52,160.996L139.303,147.773L137.68,136.669L141.467,116.727L140.308,105.321L133.351,83.446L143.863,77.672L145.718,67.101L143.399,56.738L158.163,47.013L164.81,38.921L175.245,31.618L176.482,12L201.68,20.836L210.724,18.63L228.656,22.867L257.101,34.241L267.149,56.738L286.473,61.585L316.696,72.096L339.575,84.456L350.087,78.01L360.368,66.507L355.344,47.269L362.068,34.929L377.527,22.996L392.368,19.539L421.354,24.767L428.697,36.131L436.736,36.217L443.538,40.55L464.871,43.548L470.127,51.88L462.32,63.92L465.644,74.632L460.156,90.004L466.572,109.906L466.572,195.973Z"/></svg>
