<svg xmlns="http://www.w3.org/2000/svg" viewBox="0 0 600 350"><path fill="#243d39" d="M286.616,194.477L297.604,194.477L309.081,194.477L312.883,194.477L324.68,194.477L336.086,194.477L347.702,194.477L359.304,194.477L372.451,194.477L385.696,194.477L393.705,194.477L393.718,192.202L395.028,192.172L395.71,195.423L396.908,196.417L399.61,196.773L403.565,197.703L407.312,199.504L410.445,198.747L415.209,200.259L416.476,200.2L419.93,198.561L423.565,200.66L427.354,202.89L430.473,204.795L433.482,206.612L433.858,208.093L434.763,208.646L434.526,209.207L435.571,209.378L436.323,208.798L436.518,210.128L437.298,211.007L438.356,211.007L438.927,211.696L438.44,212.684L442.479,215.276L443.301,220.23L444.081,224.91L442.952,228.049L441.128,230.945L440.278,232.776L440.195,233.314L440.626,234.061L441.936,234.878L442.911,234.878L447.409,232.096L451.392,231.273L456.448,228.666L456.518,228.129L456.17,226.505L455.557,225.461L457.298,224.62L461.1,224.593L464.651,224.602L465.891,222.506L466.365,222.087L470.459,218.188L472.2,217.18L478.078,217.143L485.209,217.143L485.599,215.788L486.838,215.509L488.482,214.66L489.86,212.139L491.03,207.779L493.983,203.491L495.264,204.988L497.869,204.023L499.582,205.671L499.582,213.313L502.103,216.429L502.771,218.225L498.649,220.853L494.665,222.715L490.585,224.304L488.537,227.466L487.883,228.657L487.841,231.441L489.122,234.202L490.724,234.334L490.32,232.432L491.476,233.587L491.17,235.071L488.551,235.911L486.699,235.814L483.844,236.714L482.158,236.966L479.902,237.219L476.685,238.704L482.367,237.741L483.509,238.713L478.092,240.244L475.626,240.252L475.738,239.63L474.568,241.045L475.71,241.277L474.874,244.905L472.047,248.757L471.768,247.475L470.919,247.221L469.651,245.968L470.445,248.656L471.406,249.539L471.476,251.407L470.236,253.324L468.05,257.226L467.702,257.028L468.899,253.706L466.922,251.833L466.462,247.711L465.724,249.858L466.546,252.991L463.997,252.217L466.657,253.806L466.824,258.441L467.924,258.777L468.328,260.443L468.872,265.23L466.42,268.747L462.409,270.14L459.874,272.88L457.938,273.18L455.975,274.887L455.431,276.447L451.184,279.431L448.997,281.608L447.172,284.31L446.574,287.514L447.27,290.634L448.551,294.437L450.278,297.561L450.292,299.464L452.131,304.519L452.005,307.433L451.838,309.108L450.877,311.728L449.721,312.27L447.813,311.749L447.2,309.872L445.738,308.883L443.677,305.172L441.88,301.847L441.295,300.139L442.089,297.218L441.016,294.789L437.994,291.072L436.49,290.391L432.576,292.415L431.894,292.189L430.014,290.111L427.59,288.997L423.217,289.566L419.777,289.065L416.824,289.376L415.237,290.073L415.933,291.261L415.863,293.07L416.685,293.949L415.947,294.527L414.512,293.874L413.064,294.714L410.25,294.579L407.367,292.234L403.997,292.784L401.184,291.752L398.774,292.068L395.515,293.108L391.991,296.39L388.147,298.291L386.03,300.383L385.153,302.349L385.111,305.341L385.306,307.418L386.03,308.883L384.526,309.014L381.783,308.067L378.76,306.724L377.674,304.696L376.824,301.648L374.54,299.153L373.203,296.577L371.267,293.551L368.537,291.774L365.376,291.857L362.939,295.366L359.735,294.039L357.73,292.701L356.769,290.248L355.487,287.902L353.189,285.919L351.212,284.494L349.791,282.88L343.092,282.88L343.092,284.755L340.014,284.755L332.326,284.786L323.496,281.584L317.66,279.362L318.022,278.46L313.106,278.958L308.705,279.315L308.064,276.963L305.557,274.298L303.747,273.739L303.329,272.406L301.156,272.169L299.763,270.91L296.17,270.442L295.181,269.687L294.721,267.1L290.961,262.313L287.744,255.594L287.883,254.461L286.17,252.842L283.176,248.698L282.646,244.616L280.585,241.853L281.435,237.628L281.295,233.19L280.056,229.174L281.574,224.168L282.047,219.275L282.507,214.305L281.811,206.813L280.585,201.928L279.471,199.249L279.93,198.117L285.529,200.082L287.591,205.498L288.552,203.994L287.925,199.278ZM160.641,333.228L161.323,333.583L161.95,334.133L162.939,335.573L162.841,335.802L161.337,336.677L160.098,337.314L159.527,338L158.566,337.418L158.677,336.274L158.036,334.774L158.231,334.321L158.9,333.646L158.635,332.837L158.858,332.453L159.151,332.53ZM158.343,330.398L158.023,330.895L156.713,331.196L156.059,330.321L155.613,329.985L155.571,329.725L155.947,329.375L157.326,329.767ZM155.39,328.694L155.265,329.136L153.19,329.017L153.482,328.511ZM150.488,326.443L150.808,326.71L151.922,328.09L151.713,328.329L151.449,328.272L150.098,328.125L149.61,327.189L149.457,327.02ZM145.307,324.367L145.376,325.342L144.917,325.751L143.621,324.996L143.816,324.692L144.415,324.282ZM117.828,117.64L120.892,118.355L121.268,121.324L118.886,122.522L116.351,121.088L114.011,118.975ZM169.039,135.885L171.616,136.379L173.245,138.624L169.903,142.035L166.045,144.735L164.067,142.914L163.468,139.563L166.978,136.994ZM216.407,31.111L216.379,69.295L216.365,118.249L220.167,118.474L223.942,120.63L226.644,124L230.084,128.967L233.844,124.749L237.73,122.262L239.777,126.214L242.382,129.296L245.933,132.643L248.343,137.89L252.298,146.021L258.886,150.451L258.983,154.774L256.839,158.031L254.708,155.486L251.295,153.321L250.209,147.301L245.223,141.588L243.134,134.759L239.415,134.288L233.273,134.101L228.733,131.98L220.738,124.181L217.034,122.73L210.265,119.975L204.903,120.644L197.298,117.057L192.702,113.688L188.399,115.364L189.206,120.801L187.061,121.297L182.591,122.899L179.179,125.469L174.889,127.084L174.346,122.6L176.087,114.949L180.195,112.501L179.137,110.491L174.206,114.936L171.56,120.159L165.989,125.611L168.816,129.271L165.167,134.586L161.003,137.645L157.131,139.843L156.17,142.998L150.126,146.638L148.914,149.913L144.387,152.847L141.727,152.325L138.12,154.233L134.193,156.539L130.975,158.78L124.332,160.688L123.733,159.572L127.967,156.436L131.741,154.348L135.864,150.591L140.669,149.819L142.577,146.958L147.939,142.746L148.803,141.31L151.658,138.783L152.326,133.255L154.29,128.865L149.833,131.126L148.58,129.84L146.491,132.543L143.97,128.764L142.925,131.44L141.477,127.721L137.605,130.711L135.237,130.711L134.903,126.239L135.599,123.457L133.106,120.709L128.078,122.184L124.805,118.553L122.159,116.671L122.145,112.189L119.165,108.755L120.669,104.045L123.816,99.388L125.195,95.034L128.329,94.41L130.989,95.772L134.109,91.618L136.908,92.367L139.861,89.671L139.137,85.638L136.978,84.037L139.833,80.557L137.465,80.665L133.357,82.624L132.173,84.612L129.123,82.624L123.663,83.643L117.995,81.478L116.365,77.805L111.477,72.414L116.908,68.456L125.544,63.742L128.719,63.742L128.19,68.569L136.351,68.197L133.218,62.205L128.454,58.446L125.711,53.409L121.992,49.036L116.686,45.739L118.844,40.188L125.711,39.842L130.585,34.876L131.505,29.481L135.46,24.076L139.234,22.75L146.56,17.566L150.126,18.365L156.073,12L161.936,14.526L164.736,19.856L166.449,17.586L172.981,18.285L172.758,20.982L178.677,22.965L182.619,21.808L190.766,25.434L198.204,26.515L201.184,27.993L206.337,26.149L212.201,29.538ZM97.466,89.523L99.847,91.192L102.257,90.292L105.39,92.587L109.234,93.74L108.914,94.671L105.975,96.479L103.037,94.628L101.56,93.069L98.148,93.565L97.229,92.806Z"/></svg>
